<?xml version="1.0" standalone="no"?>
<!DOCTYPE svg PUBLIC "-//W3C//DTD SVG 20010904//EN"
 "http://www.w3.org/TR/2001/REC-SVG-20010904/DTD/svg10.dtd">
<svg version="1.0" xmlns="http://www.w3.org/2000/svg"
 width="171.000000pt" height="175.000000pt" viewBox="0 0 171.000000 175.000000"
 preserveAspectRatio="xMidYMid meet">

<g transform="translate(0.000000,175.000000) scale(0.100000,-0.100000)"
fill="#000000" stroke="none">
<path d="M5 875 c0 -484 1 -683 2 -443 2 240 2 636 0 880 -1 244 -2 47 -2
-437z"/>
<path d="M731 1524 c-298 -61 -518 -316 -538 -624 -11 -160 59 -353 173 -478
64 -72 181 -153 254 -177 69 -23 80 -13 80 74 l0 67 -57 -4 c-82 -5 -138 25
-175 93 -15 28 -43 64 -63 82 -42 37 -39 58 8 49 41 -8 72 -36 55 -48 -10 -7
-9 -8 3 -6 8 2 33 -16 55 -39 29 -30 50 -43 70 -44 78 -3 97 5 120 56 l21 45
-26 5 c-136 27 -226 95 -255 194 -24 83 -21 185 8 247 13 28 29 55 35 58 7 5
7 15 1 32 -13 33 -12 70 1 117 9 32 14 37 39 37 31 0 87 -22 131 -52 21 -14
33 -15 70 -6 55 12 213 12 256 -1 28 -8 42 -5 100 25 56 28 133 46 133 30 0
-2 4 -25 9 -52 5 -27 6 -65 2 -84 -6 -29 -2 -43 24 -84 28 -46 30 -56 30 -145
0 -106 -21 -169 -73 -224 -32 -34 -103 -72 -152 -82 -74 -14 -72 -12 -53 -48
14 -24 19 -65 23 -167 6 -162 5 -161 125 -101 237 117 378 340 378 596 0 187
-65 338 -202 475 -93 93 -181 145 -296 175 -89 23 -226 27 -314 9z"/>
<path d="M520 480 c0 -5 5 -10 10 -10 6 0 10 5 10 10 0 6 -4 10 -10 10 -5 0
-10 -4 -10 -10z"/>
<path d="M565 450 c3 -5 10 -10 16 -10 5 0 9 5 9 10 0 6 -7 10 -16 10 -8 0
-12 -4 -9 -10z"/>
<path d="M670 450 c0 -5 5 -10 10 -10 6 0 10 5 10 10 0 6 -4 10 -10 10 -5 0
-10 -4 -10 -10z"/>
</g>
</svg>
