<?xml version="1.0" standalone="no"?>
<!DOCTYPE svg PUBLIC "-//W3C//DTD SVG 20010904//EN"
 "http://www.w3.org/TR/2001/REC-SVG-20010904/DTD/svg10.dtd">
<svg version="1.0" xmlns="http://www.w3.org/2000/svg"
 width="195.000000pt" height="174.000000pt" viewBox="0 0 195.000000 174.000000"
 preserveAspectRatio="xMidYMid meet">

<g transform="translate(0.000000,174.000000) scale(0.100000,-0.100000)"
fill="#000000" stroke="none">
<path d="M0 870 l0 -870 975 0 975 0 0 870 0 870 -975 0 -975 0 0 -870z m549
777 c22 -15 53 -46 68 -69 24 -35 28 -52 28 -108 0 -57 -5 -74 -30 -116 -115
-185 -395 -101 -395 118 0 78 50 154 125 190 59 28 149 21 204 -15z m984 -487
c112 -35 179 -118 218 -267 17 -68 19 -112 19 -413 0 -248 -3 -339 -12 -348
-15 -15 -285 -17 -308 -2 -13 8 -16 59 -20 322 -5 296 -6 315 -26 353 -36 66
-57 79 -132 83 -84 4 -115 -14 -157 -89 l-30 -54 -5 -303 c-4 -254 -7 -304
-20 -312 -8 -5 -75 -10 -149 -10 -111 0 -138 3 -153 17 -17 15 -18 44 -18 505
0 475 1 489 20 508 18 18 33 20 148 20 155 0 172 -8 172 -75 l0 -44 44 44 c82
81 262 110 409 65z m-955 -6 l22 -15 0 -494 c0 -439 -2 -495 -16 -510 -13 -13
-39 -15 -157 -13 -140 3 -142 3 -154 28 -10 19 -13 137 -13 498 l0 473 25 24
c23 24 30 25 147 25 96 0 129 -4 146 -16z"/>
</g>
</svg>
